<svg version="1.1" xmlns="http://www.w3.org/2000/svg" viewBox="0 0 1267.8870239257812 637.2597656249995" width="3803.6610717773438" height="1911.7792968749986">
  <!-- svg-source:excalidraw -->
  
  <defs>
    <style>
      @font-face {
        font-family: "Virgil";
        src: url("https://excalidraw.com/Virgil.woff2");
      }
      @font-face {
        font-family: "Cascadia";
        src: url("https://excalidraw.com/Cascadia.woff2");
      }
    </style>
  </defs>
  <g stroke-linecap="round" transform="translate(10 10) rotate(0 623.9435119628906 308.6298828124998)"><path d="M1.07 2.02 L1246.05 2.85 L1246.51 616.36 L2.54 617.92" stroke="none" stroke-width="0" fill="#ced4da"></path><path d="M-1.48 0.79 C320.35 -8.62, 644.32 -7.07, 1249.2 0.46 M-0.48 0.43 C456.8 -8.69, 911.78 -8.79, 1247.36 -0.69 M1249.18 1.35 C1253.02 176.93, 1251.42 349.97, 1247.74 617.17 M1247.19 -0.08 C1244.48 177.3, 1244.44 355.14, 1248.42 616.85 M1249.07 616.9 C905.9 617.93, 563.72 615.53, -1.33 616.91 M1248.63 617.65 C761.65 617.57, 273.98 618.8, -0.3 617.32 M1.24 616.31 C-0.96 371.01, 0.1 127.93, -0.6 -0.02 M0.54 617.51 C2.03 462.21, 2.31 306.48, -0.75 -0.19" stroke="transparent" stroke-width="4" fill="none"></path></g><g stroke-linecap="round" transform="translate(686.8875325520821 110.29292660667443) rotate(0 95 40.5)"><path d="M1.87 0.18 L189.76 -0.69 L189.67 79.78 L-0.88 80.42" stroke="none" stroke-width="0" fill="#f3c677"></path><path d="M0.55 1.29 C60.01 0.26, 120.35 0.02, 191.73 0.6 M0.93 -0.34 C63.35 1.29, 128.63 0.47, 190.15 0.03 M188.06 1.02 C191.76 21.32, 189.18 38.43, 189.9 82.55 M189.55 -0.39 C189.12 23.2, 189.59 46.55, 189.16 80.9 M191.03 80.55 C126.28 81.9, 62.72 82.76, -0.93 80.16 M190.06 81.57 C145.05 81.97, 99.63 83.26, 0.33 80.15 M1.98 79.35 C1.77 62.67, 2.57 43.85, 0.19 -1.88 M0.26 80.34 C-0.21 62.65, -1.14 45.12, 0.2 -0.97" stroke="#f3c677" stroke-width="4" fill="none"></path></g><g transform="translate(691.8875325520821 127.79292660667443) rotate(0 90 23)"><text x="90" y="32" font-family="Virgil, Segoe UI Emoji" font-size="36px" fill="#f3c677" text-anchor="middle" style="white-space: pre;" direction="ltr">ScyllaDB</text></g><g stroke-linecap="round" transform="translate(119.76863606770712 103.5943112266873) rotate(0 5.163671012447594 33.38191746810958)"><path d="M0.96 -0.16 L10.91 -1.65 L11.79 67.63 L1.4 65.29" stroke="none" stroke-width="0" fill="#7b1e7a"></path><path d="M-0.18 -0.85 C2.85 0.23, 5.52 0.51, 11.36 0.85 M-0.29 0.38 C4.04 0.27, 7.31 0.28, 10.47 0.37 M10.52 -1.63 C8.71 15.89, 10.33 31.23, 11.05 66.86 M9.43 -0.85 C9.69 25.9, 9.43 50.85, 9.57 65.99 M10.23 66.15 C7.3 66.45, 2.57 66.24, -0.74 65.77 M10.77 66.78 C6.63 66.45, 3.63 66.42, 0.41 67.12 M-1.48 65.63 C0.59 45.57, -0.37 21.95, -0.05 -1.87 M0.05 67.27 C-0.56 46.83, 0.86 26.26, 0.67 -0.05" stroke="#0c0a3e" stroke-width="4" fill="none"></path></g><g stroke-linecap="round" transform="translate(143.44700757733153 102.63572358020292) rotate(0 5.163671012447594 33.38191746810958)"><path d="M-1.21 -1.83 L11.89 -0.44 L11.71 68.22 L1.6 67.03" stroke="none" stroke-width="0" fill="#7b1e7a"></path><path d="M-0.87 0.4 C4.24 -0.07, 7.29 -0.96, 10.12 -0.17 M-0.07 0.08 C3.22 0.09, 5.76 -0.48, 10.52 -0.12 M11.96 -1.34 C11.06 19, 12.04 33.33, 10.53 66.32 M10.83 -0.05 C10.81 19.47, 10.28 37.29, 10.11 67.21 M10.39 67 C6.51 67.46, 3.69 66.78, 0.73 66.14 M10.53 67.07 C7.53 66.75, 4.58 66.61, 0.46 66.37 M-0.31 66.79 C-0.83 50.34, 0.18 30.85, 0.89 1.95 M0.96 67.42 C1.36 44.42, 0.17 20.89, -0.64 0.28" stroke="#0c0a3e" stroke-width="4" fill="none"></path></g><g stroke-linecap="round" transform="translate(167.12537908695595 102.63572358020292) rotate(0 5.163671012447594 33.38191746810958)"><path d="M0.05 -0.42 L8.44 1.33 L9.8 66.04 L-1.96 68.13" stroke="none" stroke-width="0" fill="#7b1e7a"></path><path d="M0.12 0.84 C3.33 0.86, 6.2 -0.33, 11.18 -0.08 M0.48 0.19 C3.11 0.24, 6.38 0.21, 9.89 -0.38 M10.7 -0.8 C9.12 25.17, 11.32 51.71, 8.5 68.33 M11.12 0.13 C10.42 18.19, 11.74 37.07, 10.49 67.27 M9.57 67.75 C7.04 67.69, 3.89 67.76, 0.27 66.84 M10.74 66.59 C7.76 66.75, 4.24 67.13, 0.01 66.86 M-1.06 65.74 C-1.68 40.39, -0.77 17.86, 0.88 -0.77 M-0.83 67.66 C-0.95 41.11, -0.91 14.01, -0.94 -0.01" stroke="#0c0a3e" stroke-width="4" fill="none"></path></g><g stroke-linecap="round" transform="translate(190.80375059658036 102.63572358020292) rotate(0 5.163671012447594 33.38191746810958)"><path d="M-0.42 -1.89 L11.66 -0.53 L9.6 64.8 L1.36 65.96" stroke="none" stroke-width="0" fill="#7b1e7a"></path><path d="M0.84 -0.16 C4.64 -0.8, 7.17 0.84, 10.25 -0.16 M0.19 0.17 C3.34 0.41, 6.42 -0.54, 9.95 0.5 M9.52 -1.65 C9.57 24.96, 9.65 47, 11.89 66.32 M10.46 -0.37 C10.45 25.61, 10.77 49.47, 10.84 67.38 M11.31 67.2 C9.13 67.72, 7.08 66.96, 0.08 66.73 M10.15 67.27 C7.82 66.89, 5.69 66.86, 0.1 67.16 M-1.03 65.74 C-1.77 40.05, 0.86 14.45, -0.77 1.84 M0.9 66.26 C1.01 41.75, 0.06 16.71, -0.01 0.03" stroke="#0c0a3e" stroke-width="4" fill="none"></path></g><g stroke-linecap="round" transform="translate(214.48212210620477 102.63572358020292) rotate(0 5.163671012447594 33.38191746810958)"><path d="M0.13 -1.42 L12.3 1.31 L10.47 67.87 L0.37 64.82" stroke="none" stroke-width="0" fill="#7b1e7a"></path><path d="M0.75 0.72 C2.56 -0.44, 5.65 -0.16, 9.91 0.63 M0.41 0.5 C3.15 -0.5, 6.66 -0.06, 10.1 0.28 M11.16 -1.17 C12.53 25.19, 11.05 47.88, 11.59 64.85 M9.44 0.31 C9.74 14.03, 10.41 29.7, 10.77 65.9 M9.58 67.31 C7.89 67.59, 5.17 65.82, 0.15 66.77 M10.07 66.6 C7.15 66.69, 3.76 66.89, 0.18 67.12 M-1.54 66.45 C-1.58 48.31, 1.09 29.36, -0.43 -1.17 M0.33 67.32 C0.56 45.15, -0.19 25.94, 0.89 0.64" stroke="#0c0a3e" stroke-width="4" fill="none"></path></g><g stroke-linecap="round" transform="translate(238.92550826426668 102.63572358020292) rotate(0 5.163671012447594 33.38191746810958)"><path d="M-1.42 1.97 L11.64 0.14 L11.43 67.13 L-1.94 67.3" stroke="none" stroke-width="0" fill="#7b1e7a"></path><path d="M0.72 -0.38 C3.46 -0.31, 7.62 -0.49, 10.96 0.01 M0.5 0.04 C3.49 0.36, 7.84 -0.3, 10.6 0.36 M9.15 1.95 C11.02 23.03, 9.06 46.38, 8.41 65.15 M10.64 -0.44 C9.68 18.83, 10.71 37.64, 9.46 66.09 M10.87 66.73 C7.96 66.34, 2.94 66.84, 0 66.73 M10.16 66.64 C7.43 66.27, 4.89 66.89, 0.36 66.69 M-0.32 65.4 C1.02 45.81, 1.19 21.8, -1.17 0.23 M0.56 67.39 C-1.01 45.93, 0.56 26.23, 0.64 0.06" stroke="#0c0a3e" stroke-width="4" fill="none"></path></g><g stroke-linecap="round" transform="translate(261.8388651254536 104.01831896537715) rotate(0 5.163671012447594 33.38191746810958)"><path d="M-1.15 -1.36 L8.97 -1.19 L8.49 65.48 L1.14 64.97" stroke="none" stroke-width="0" fill="#7b1e7a"></path><path d="M0.25 -0.45 C2.92 0.85, 6.75 -0.78, 9.96 0.46 M-0.24 0.02 C2.25 -0.03, 4.85 0.27, 10.53 -0.05 M9.91 0.24 C11.8 18.1, 8.95 38.18, 9.97 68.17 M10.74 -0.81 C11.5 15.3, 9.77 29.99, 9.36 66.94 M11.19 66.68 C6.62 67.22, 3.12 66.09, 0.28 66 M10.84 66.45 C7.31 66.92, 4.77 67, 0.51 66.43 M0.65 65.05 C1.02 51.86, 1.12 33.91, -1.2 1.3 M-0.26 67.38 C-1.5 41.55, -0.93 15.97, 0.24 -0.85" stroke="#0c0a3e" stroke-width="4" fill="none"></path></g><g stroke-linecap="round" transform="translate(285.517236635078 104.01831896537715) rotate(0 5.163671012447594 33.38191746810958)"><path d="M-1.36 -1.36 L9.14 -1.84 L9.04 67.9 L-1.8 66.69" stroke="none" stroke-width="0" fill="#7b1e7a"></path><path d="M-0.45 -0.78 C3.11 -0.69, 3.71 -0.39, 10.79 -0.61 M0.02 -0.24 C3.2 -0.08, 6.68 0.25, 10.28 -0.04 M10.57 1.16 C9.26 21.49, 9.78 46.02, 11.74 65.28 M9.52 0.8 C11.13 22.82, 10.76 46.52, 10.5 67.32 M10.25 66.72 C7.83 66.98, 3.68 67.13, -0.76 66.55 M10.01 66.63 C6.78 67.08, 3.26 67.38, -0.34 66.47 M-1.72 67.51 C1.84 50.3, 0.14 30.94, 1.3 1.69 M0.61 65.88 C0.93 40.24, 1.03 14.59, -0.85 -0.57" stroke="#0c0a3e" stroke-width="4" fill="none"></path></g><g stroke-linecap="round" transform="translate(309.1956081447024 104.01831896537715) rotate(0 5.163671012447594 33.38191746810958)"><path d="M-1.36 -1.19 L8.49 -1.29 L11.46 64.97 L-0.08 68.64" stroke="none" stroke-width="0" fill="#7b1e7a"></path><path d="M-0.78 0.88 C2.7 -0.71, 6.37 0.51, 9.72 0.07 M-0.24 0.03 C3.56 0.33, 7.59 -0.05, 10.29 0.24 M11.48 -1.46 C8.49 23.1, 9.83 49.5, 8.84 67.88 M11.13 0.22 C9.67 25.71, 9.63 51.89, 10.88 66.69 M10.29 67.3 C8.17 66.16, 6.02 66, -0.21 67.27 M10.19 66.82 C6.42 66.83, 2.59 66.36, -0.29 66.55 M0.75 68.1 C0.63 51.42, -1.42 38.11, 1.69 1.85 M-0.88 67.22 C-0.14 52.06, 0.42 35.38, -0.57 -0.68" stroke="#0c0a3e" stroke-width="4" fill="none"></path></g><g stroke-linecap="round" transform="translate(332.87397965432683 104.01831896537715) rotate(0 5.163671012447594 33.38191746810958)"><path d="M-1.19 -1.84 L9.04 1.14 L8.53 66.69 L1.88 65.54" stroke="none" stroke-width="0" fill="#7b1e7a"></path><path d="M0.88 -0.67 C2.6 -0.29, 7.17 -0.53, 10.4 0.59 M0.03 -0.13 C2.94 0.25, 5.18 0.01, 10.57 0.31 M8.86 -1.7 C9.46 18.29, 11.82 35.81, 11.44 68.51 M10.55 -0.93 C9.63 21.81, 9.96 46.11, 10.26 65.98 M10.86 66.9 C5.77 67.04, 1.65 66.55, 0.5 67.79 M10.38 66.98 C6.34 67.25, 1.75 66.44, -0.21 66.37 M1.34 67.61 C0.21 43.36, 1.87 24.04, 1.85 -1.43 M0.46 66.45 C0.15 48.73, -1.26 29.64, -0.68 -0.68" stroke="#0c0a3e" stroke-width="4" fill="none"></path></g><g stroke-linecap="round" transform="translate(356.55235116395124 104.01831896537715) rotate(0 5.163671012447594 33.38191746810958)"><path d="M-1.84 -1.29 L11.46 -1.8 L10.25 68.64 L-1.22 66.57" stroke="none" stroke-width="0" fill="#7b1e7a"></path><path d="M-0.67 -0.75 C2.28 0.38, 4.7 -0.01, 10.92 -0.49 M-0.13 0.33 C3.34 -0.05, 6.23 0.24, 10.64 -0.11 M8.63 -0.94 C10.35 22.24, 9.23 42.77, 12.07 67.59 M9.4 -0.15 C9.89 14.81, 11.41 29.19, 9.55 67.6 M10.46 66.17 C7.58 66.06, 4.08 67.32, 1.03 67.79 M10.54 66.9 C8.38 66.44, 5.11 66.56, -0.39 66.93 M0.85 66.4 C-1.45 53.76, 1.44 40.02, -1.43 -0.52 M-0.31 67.32 C0.83 41.79, 0.01 17.84, -0.68 -0.59" stroke="#0c0a3e" stroke-width="4" fill="none"></path></g><g stroke-linecap="round" transform="translate(380.23072267357566 104.01831896537715) rotate(0 5.163671012447594 33.38191746810958)"><path d="M-1.29 1.14 L8.53 -0.08 L12.2 65.54 L-0.19 67.89" stroke="none" stroke-width="0" fill="#7b1e7a"></path><path d="M-0.75 -0.37 C2.78 -0.54, 4.7 0.66, 9.84 0.03 M0.33 0.21 C2.57 -0.01, 5.47 0.34, 10.22 0.06 M9.38 -0.36 C11.25 22.41, 10.95 49.53, 11.15 65.15 M10.17 -0.97 C10.65 25.91, 10.41 49.93, 11.16 66.69 M9.73 67.04 C6.51 66.57, 4.72 67.8, 1.02 66.13 M10.46 67.28 C7.16 66.51, 4.45 66.42, 0.17 66.32 M-0.37 65.56 C0.85 45.93, 1.4 20.29, -0.52 1.23 M0.56 67.01 C-1.16 52.03, -0.99 37.77, -0.59 -0.92" stroke="#0c0a3e" stroke-width="4" fill="none"></path></g><g stroke-linecap="round" transform="translate(403.90909418320007 104.01831896537715) rotate(0 5.163671012447594 33.38191746810958)"><path d="M1.14 -1.8 L10.25 1.88 L9.11 66.57 L1.12 67.05" stroke="none" stroke-width="0" fill="#7b1e7a"></path><path d="M-0.37 0.46 C3.37 0.15, 8.54 -0.41, 10.36 -0.48 M0.21 -0.05 C3.12 0.18, 6.62 -0.17, 10.39 0.3 M9.97 1.41 C8.28 16.26, 11.51 31.11, 8.71 68.36 M9.36 0.17 C10.26 21.46, 8.92 43.89, 10.25 66.72 M10.6 66 C6.48 67.21, 4.09 67.73, -0.64 66.5 M10.84 66.43 C6.83 66.58, 3.53 66.96, -0.44 66.96 M-1.2 68.06 C1.41 44.11, -1.71 17.24, 1.23 -1.76 M0.24 65.91 C-0.36 43.01, -0.47 20.03, -0.92 -0.64" stroke="#0c0a3e" stroke-width="4" fill="none"></path></g><g transform="translate(113.975880940754 51.46455746604943) rotate(0 51 23)"><text x="51" y="32" font-family="Virgil, Segoe UI Emoji" font-size="36px" fill="#222" text-anchor="middle" style="white-space: pre;" direction="ltr">kafka</text></g><g stroke-linecap="round"><g transform="translate(450.31623395283896 168.66658383323693) rotate(0 102.1761680230502 0.39072499777194025)"><path d="M-0.61 -0.58 C33.69 -0.49, 170.76 0.6, 204.96 0.77 M1.27 1.74 C35.49 1.47, 170.29 -0.38, 204.02 -0.95" stroke="#0c0a3e" stroke-width="4" fill="none"></path></g><g transform="translate(450.31623395283896 168.66658383323693) rotate(0 102.1761680230502 0.39072499777194025)"><path d="M175.02 9.74 C183.65 6.84, 189.48 4.39, 203.09 -1.52 M176.04 9.64 C186.75 5.83, 196.08 1.84, 204.82 -1.5" stroke="#0c0a3e" stroke-width="4" fill="none"></path></g><g transform="translate(450.31623395283896 168.66658383323693) rotate(0 102.1761680230502 0.39072499777194025)"><path d="M174.72 -10.78 C183.45 -8.99, 189.35 -6.75, 203.09 -1.52 M175.73 -10.88 C186.66 -6.97, 196.1 -3.23, 204.82 -1.5" stroke="#0c0a3e" stroke-width="4" fill="none"></path></g></g><g stroke-linecap="round" transform="translate(699.5420735677071 339.89451962425255) rotate(0 81 37.5)"><path d="M-0.77 -0.57 L162.53 0.19 L160.48 74.32 L0.99 76.65" stroke="none" stroke-width="0" fill="#f3c677"></path><path d="M1.45 0.96 C62.14 0.36, 121.88 -0.44, 163.94 -0.79 M-0.95 -0.41 C64.65 -1.74, 127.19 -0.99, 161.77 0.01 M161.91 1.14 C162.71 26.37, 162.35 47.76, 160.92 75.18 M162.64 -0.16 C161.16 23.48, 161.22 45.68, 161.93 75.09 M163.81 74.72 C117.02 77.46, 70.93 77, -0.4 76.2 M162.87 75.91 C123.92 73.85, 84.64 73.2, -0.72 74.62 M-0.6 76.28 C-0.35 55.34, 0.96 35.93, 1.94 -0.5 M-0.45 75.48 C0.03 51.2, 0.38 26.42, 0.84 0.93" stroke="#0c0a3e" stroke-width="4" fill="none"></path></g><g transform="translate(704.5420735677071 354.39451962425255) rotate(0 76 23)"><text x="76" y="32" font-family="Virgil, Segoe UI Emoji" font-size="36px" fill="#0c0a3e" text-anchor="middle" style="white-space: pre;" direction="ltr">Elastic</text></g><g transform="translate(472.9364827473946 117.53090268089318) rotate(0 80 23)"><text x="80" y="32" font-family="Virgil, Segoe UI Emoji" font-size="36px" fill="#0c0a3e" text-anchor="middle" style="white-space: pre;" direction="ltr">Ingestion</text></g><g stroke-linecap="round"><g transform="translate(776.1384433110543 205.35713559104943) rotate(0 0.14815234722300374 57.85525865818363)"><path d="M-0.32 0.64 C-0.58 19.71, -1.38 95.54, -1.43 114.78 M1.71 -0.07 C1.82 19.09, 1.36 96.17, 0.84 115.79" stroke="#0c0a3e" stroke-width="4" fill="none"></path></g><g transform="translate(776.1384433110543 205.35713559104943) rotate(0 0.14815234722300374 57.85525865818363)"><path d="M-7.95 86.06 C-7.58 96.22, -2.3 104.87, -0.47 117.05 M-9.51 88.39 C-4.57 98.07, -1.49 109.71, 0.36 114.99" stroke="#0c0a3e" stroke-width="4" fill="none"></path></g><g transform="translate(776.1384433110543 205.35713559104943) rotate(0 0.14815234722300374 57.85525865818363)"><path d="M12.57 86.36 C6.58 96.38, 5.51 104.93, -0.47 117.05 M11.01 88.69 C8.18 98.17, 3.49 109.7, 0.36 114.99" stroke="#0c0a3e" stroke-width="4" fill="none"></path></g></g><g transform="translate(795.3568929036446 245.35203915550255) rotate(0 70.5 23)"><text x="70.5" y="32" font-family="Virgil, Segoe UI Emoji" font-size="36px" fill="#0c0a3e" text-anchor="middle" style="white-space: pre;" direction="ltr">Indexing</text></g><g stroke-linecap="round" transform="translate(384.53261311848837 338.63231259300255) rotate(0 46.5 37.5)"><path d="M-0.07 -1.87 L92.71 0.22 L94.78 74.01 L-1.26 75.62" stroke="none" stroke-width="0" fill="#b33f62"></path><path d="M1.21 -1.2 C24.55 -1.23, 47.19 0.39, 92.26 -1.73 M0.9 -0.27 C20.08 0.26, 38.54 0.37, 93.52 0.68 M91.23 -0.12 C91.44 22.23, 92.35 41.98, 92.81 74.65 M92.7 -0.39 C92.87 22.94, 94.34 44.07, 92.61 75.9 M93.12 74.34 C72.22 75.28, 53.04 76.86, 0.7 74.21 M92.94 74.52 C71.56 73.94, 51.75 73.94, -0.27 75.23 M0.16 75.76 C1.09 48.37, 1.96 19.57, 0.38 -0.98 M-0.17 74.36 C-1.28 52.94, -0.64 29.03, -0.51 -0.58" stroke="#0c0a3e" stroke-width="4" fill="none"></path></g><g transform="translate(389.53261311848837 353.13231259300255) rotate(0 41.5 23)"><text x="41.5" y="32" font-family="Virgil, Segoe UI Emoji" font-size="36px" fill="#0c0a3e" text-anchor="middle" style="white-space: pre;" direction="ltr">BE</text></g><g stroke-linecap="round" transform="translate(228.85133870442587 338.63231259300255) rotate(0 32 37.5)"><path d="M1.79 0.08 L62.69 0.04 L64.52 76.95 L-1.33 74.79" stroke="none" stroke-width="0" fill="#f3c677"></path><path d="M-0.45 1.61 C22.04 1.48, 40.27 -1.71, 62.92 0.66 M-0.05 -0.41 C14.67 -0.5, 31.79 -0.54, 63.29 0.1 M62.41 1.83 C62.51 21.04, 64.21 36.91, 64.74 75.33 M64.62 -0.17 C63.79 23.48, 64.19 46.93, 64.92 74.69 M65.16 75.84 C42.12 73.65, 18 74.47, -0.42 73.66 M63.54 74.6 C42.31 75.2, 17.83 75.43, -0.9 74.17 M-0.41 76.74 C0.23 45.98, 0.02 19.48, -1.79 -1.81 M-0.6 74.64 C-0.86 58.98, -0.45 44.57, -0.9 0.49" stroke="#0c0a3e" stroke-width="4" fill="none"></path></g><g transform="translate(233.85133870442587 353.13231259300255) rotate(0 27 23)"><text x="27" y="32" font-family="Virgil, Segoe UI Emoji" font-size="36px" fill="#0c0a3e" text-anchor="middle" style="white-space: pre;" direction="ltr">FE</text></g><g stroke-linecap="round" transform="translate(293.6919759114571 338.63231259300255) rotate(0 45 37.5)"><path d="M-1.35 0.7 L89.23 -0.67 L91.94 75.9 L1.35 73.08" stroke="none" stroke-width="0" fill="#f9564f"></path><path d="M1.03 0.23 C20.37 -1.52, 40.04 0.34, 91.22 -0.91 M-0.61 -0.05 C28.53 -0.85, 56.72 -1.4, 90.56 -0.12 M89.76 0.21 C88.28 20.68, 90.71 40.44, 88.97 74.06 M90.92 -0.89 C89.71 17.28, 89.05 33.81, 90.4 75.15 M91.49 73.61 C66.67 74.34, 45.39 75.74, -0.73 75.32 M89.63 75.64 C65.22 73.55, 41.31 73.66, -0.93 75.07 M-1.5 75.47 C-1.57 51.92, 0.49 34.45, 1.09 -0.44 M0.03 74.27 C1.14 48.45, -0.13 21.74, -0.18 -0.51" stroke="#0c0a3e" stroke-width="4" fill="none"></path></g><g transform="translate(298.6919759114571 353.13231259300255) rotate(0 40 23)"><text x="40" y="32" font-family="Virgil, Segoe UI Emoji" font-size="36px" fill="#0c0a3e" text-anchor="middle" style="white-space: pre;" direction="ltr">API</text></g><g stroke-linecap="round"><g transform="translate(525.7719319661446 357.19993954612755) rotate(0 68.23346879588917 0.03074431748882489)"><path d="M0.55 -1.04 C23.54 -1.05, 114.12 -0.27, 137.08 0.09 M-0.61 1.02 C22.25 1.13, 112.84 0.87, 135.95 1.11" stroke="#0c0a3e" stroke-width="4" fill="none"></path></g><g transform="translate(525.7719319661446 357.19993954612755) rotate(0 68.23346879588917 0.03074431748882489)"><path d="M105.99 10.7 C112.61 10.33, 120.81 8.34, 136.16 0.26 M107.31 10.73 C117.83 8.45, 125.44 5, 135.5 1.03" stroke="#0c0a3e" stroke-width="4" fill="none"></path></g><g transform="translate(525.7719319661446 357.19993954612755) rotate(0 68.23346879588917 0.03074431748882489)"><path d="M106.05 -9.82 C112.67 -5.44, 120.86 -2.67, 136.16 0.26 M107.37 -9.79 C117.93 -5.35, 125.53 -2.07, 135.5 1.03" stroke="#0c0a3e" stroke-width="4" fill="none"></path></g></g><g stroke-linecap="round"><g transform="translate(662.8682765324902 392.30009823753335) rotate(0 -69.09747575670553 0.1257220963996133)"><path d="M-0.02 -0.21 C-23.06 0.11, -115.4 1.54, -138.18 1.61 M-1.48 -1.36 C-24.15 -1.37, -113.26 -0.64, -135.86 -0.23" stroke="#0c0a3e" stroke-width="4" fill="none"></path></g><g transform="translate(662.8682765324902 392.30009823753335) rotate(0 -69.09747575670553 0.1257220963996133)"><path d="M-108.14 -12.09 C-115.62 -6.36, -126.58 -5.32, -133.95 -0.82 M-107.29 -10.33 C-118.21 -7.01, -126.81 -3.14, -136.08 0.74" stroke="#0c0a3e" stroke-width="4" fill="none"></path></g><g transform="translate(662.8682765324902 392.30009823753335) rotate(0 -69.09747575670553 0.1257220963996133)"><path d="M-107.89 8.43 C-115.39 7.81, -126.43 2.5, -133.95 -0.82 M-107.03 10.19 C-117.88 6.58, -126.57 3.51, -136.08 0.74" stroke="#0c0a3e" stroke-width="4" fill="none"></path></g></g><g transform="translate(448.17018636067587 286.3500249953463) rotate(0 134 23)"><text x="134" y="32" font-family="Virgil, Segoe UI Emoji" font-size="36px" fill="#0c0a3e" text-anchor="middle" style="white-space: pre;" direction="ltr">search request</text></g><g transform="translate(442.1266682942696 418.6257818312838) rotate(0 141 23)"><text x="141" y="32" font-family="Virgil, Segoe UI Emoji" font-size="36px" fill="#0c0a3e" text-anchor="middle" style="white-space: pre;" direction="ltr">search response</text></g><g transform="translate(709.8941243489571 131.2347906203463) rotate(0 77.5 23)"><text x="77.5" y="32" font-family="Virgil, Segoe UI Emoji" font-size="36px" fill="#0c0a3e" text-anchor="middle" style="white-space: pre;" direction="ltr">ScyllaDB</text></g></svg>